<mxfile host="drawio-plugin" modified="2022-12-10T00:59:16.985Z" agent="5.0 (Windows NT 6.2; Win64; x64) AppleWebKit/537.36 (KHTML, like Gecko) Chrome/98.0.4758.102 Safari/537.36" etag="BrcxK0e4e5L2dxhS2JsZ" version="15.5.4" type="embed"><diagram id="RCmQROUpzB5a1WLBMB2V" name="Page-1"><mxGraphModel dx="1138" dy="743" grid="1" gridSize="10" guides="1" tooltips="1" connect="1" arrows="1" fold="1" page="1" pageScale="1" pageWidth="850" pageHeight="1100" math="0" shadow="0"><root><mxCell id="0"/><mxCell id="1" parent="0"/><mxCell id="2" value="ScrabbleFrame" style="swimlane;fontStyle=1;align=center;verticalAlign=top;childLayout=stackLayout;horizontal=1;startSize=26;horizontalStack=0;resizeParent=1;resizeParentMax=0;resizeLast=0;collapsible=1;marginBottom=0;" parent="1" vertex="1"><mxGeometry x="290" y="140" width="320" height="220" as="geometry"/></mxCell><mxCell id="3" value="- centerContent: JPanel&#10;- rightContent: JPanel&#10;- leftContent: JPanel&#10;- southContent: JPanel&#10;" style="text;strokeColor=none;fillColor=none;align=left;verticalAlign=top;spacingLeft=4;spacingRight=4;overflow=hidden;rotatable=0;points=[[0,0.5],[1,0.5]];portConstraint=eastwest;" parent="2" vertex="1"><mxGeometry y="26" width="320" height="84" as="geometry"/></mxCell><mxCell id="4" value="" style="line;strokeWidth=1;fillColor=none;align=left;verticalAlign=middle;spacingTop=-1;spacingLeft=3;spacingRight=3;rotatable=0;labelPosition=right;points=[];portConstraint=eastwest;" parent="2" vertex="1"><mxGeometry y="110" width="320" height="8" as="geometry"/></mxCell><mxCell id="5" value="+ setCenterContent: JPanel&#10;+ setRightContent: JPanel&#10;+ setLeftContent: JPanel&#10;+ setMenu: JPanel&#10;+ setSouthContent: JPanel" style="text;strokeColor=none;fillColor=none;align=left;verticalAlign=top;spacingLeft=4;spacingRight=4;overflow=hidden;rotatable=0;points=[[0,0.5],[1,0.5]];portConstraint=eastwest;" parent="2" vertex="1"><mxGeometry y="118" width="320" height="102" as="geometry"/></mxCell><mxCell id="19" style="edgeStyle=orthogonalEdgeStyle;rounded=0;orthogonalLoop=1;jettySize=auto;html=1;entryX=0;entryY=0.5;entryDx=0;entryDy=0;endArrow=diamondThin;endFill=0;endSize=15;" parent="1" source="8" target="5" edge="1"><mxGeometry relative="1" as="geometry"/></mxCell><mxCell id="8" value="Turn Action Panel" style="swimlane;fontStyle=1;align=center;verticalAlign=top;childLayout=stackLayout;horizontal=1;startSize=26;horizontalStack=0;resizeParent=1;resizeParentMax=0;resizeLast=0;collapsible=1;marginBottom=0;" parent="1" vertex="1"><mxGeometry x="80" y="380" width="200" height="300" as="geometry"/></mxCell><mxCell id="9" value="- turnPanel: JPanel&#10;- actionPanel: JPanel&#10;- undoPanel: JPanel&#10;- skipPanel: JPanel&#10;- directionPanel: JPanel&#10;- currentPlayer: String&#10;- placeButton: JButton&#10;- discardButton: JButton&#10;- undoButton: JButton&#10;- directionButton: JButton&#10;- controller: TurnActionController" style="text;strokeColor=none;fillColor=none;align=left;verticalAlign=top;spacingLeft=4;spacingRight=4;overflow=hidden;rotatable=0;points=[[0,0.5],[1,0.5]];portConstraint=eastwest;" parent="8" vertex="1"><mxGeometry y="26" width="200" height="164" as="geometry"/></mxCell><mxCell id="10" value="" style="line;strokeWidth=1;fillColor=none;align=left;verticalAlign=middle;spacingTop=-1;spacingLeft=3;spacingRight=3;rotatable=0;labelPosition=right;points=[];portConstraint=eastwest;" parent="8" vertex="1"><mxGeometry y="190" width="200" height="8" as="geometry"/></mxCell><mxCell id="11" value="+ setCurrentPlayer(String name)&#10;- setUpActionPanel()&#10;- setUpTurnPanel()&#10;- setUpDirectionPanel()&#10;- setUpSkipPanel()" style="text;strokeColor=none;fillColor=none;align=left;verticalAlign=top;spacingLeft=4;spacingRight=4;overflow=hidden;rotatable=0;points=[[0,0.5],[1,0.5]];portConstraint=eastwest;" parent="8" vertex="1"><mxGeometry y="198" width="200" height="102" as="geometry"/></mxCell><mxCell id="12" value="&lt;&lt;extends TurnController&gt;&gt; &#10;Turn Action Controller" style="swimlane;fontStyle=1;align=center;verticalAlign=top;childLayout=stackLayout;horizontal=1;startSize=50;horizontalStack=0;resizeParent=1;resizeParentMax=0;resizeLast=0;collapsible=1;marginBottom=0;" parent="1" vertex="1"><mxGeometry x="390" y="410" width="290" height="240" as="geometry"/></mxCell><mxCell id="13" value="+ ActionState: Enum&#10;- action: ActionState&#10;- currentDirection: Board.Direction&#10;- listeners: List&lt;SControllerListener&gt;&#10;&#10;" style="text;strokeColor=none;fillColor=none;align=left;verticalAlign=top;spacingLeft=4;spacingRight=4;overflow=hidden;rotatable=0;points=[[0,0.5],[1,0.5]];portConstraint=eastwest;" parent="12" vertex="1"><mxGeometry y="50" width="290" height="80" as="geometry"/></mxCell><mxCell id="14" value="" style="line;strokeWidth=1;fillColor=none;align=left;verticalAlign=middle;spacingTop=-1;spacingLeft=3;spacingRight=3;rotatable=0;labelPosition=right;points=[];portConstraint=eastwest;" parent="12" vertex="1"><mxGeometry y="130" width="290" height="8" as="geometry"/></mxCell><mxCell id="15" value="+ actionPeformed (Event)&#10;+ handleBoardClickEvent(C_BoardClickEvent e)&#10;+ addControllerListener(SControllerListener l)&#10;+ notifyControllerListener(Controller event e)" style="text;strokeColor=none;fillColor=none;align=left;verticalAlign=top;spacingLeft=4;spacingRight=4;overflow=hidden;rotatable=0;points=[[0,0.5],[1,0.5]];portConstraint=eastwest;" parent="12" vertex="1"><mxGeometry y="138" width="290" height="102" as="geometry"/></mxCell><mxCell id="21" style="edgeStyle=orthogonalEdgeStyle;rounded=0;orthogonalLoop=1;jettySize=auto;html=1;entryX=1.01;entryY=0.579;entryDx=0;entryDy=0;entryPerimeter=0;endArrow=diamondThin;endFill=0;endSize=15;" edge="1" parent="1" source="13" target="9"><mxGeometry relative="1" as="geometry"/></mxCell></root></mxGraphModel></diagram></mxfile>